<svg width="21" height="15" viewBox="0 0 21 15" fill="none" xmlns="http://www.w3.org/2000/svg">
<path d="M21 7.5C21 7.9602 20.6697 8.3332 20.2623 8.3332H2.49632L7.15012 13.5843C7.29167 13.7441 7.36458 13.9573 7.36458 14.1704C7.36458 14.3836 7.29167 14.5967 7.15012 14.7566C6.86275 15.0811 6.39522 15.0811 6.10784 14.7566L0.205883 8.08615C-0.0686283 7.77612 -0.0686283 7.22388 0.205883 6.90901L6.11213 0.24342C6.39951 -0.08114 6.86703 -0.08114 7.15441 0.24342C7.44179 0.56798 7.44179 1.096 7.15441 1.42056L2.5049 6.67165H20.2665C20.674 6.6668 21 7.0398 21 7.5Z" fill="#4D506C"/>
</svg>
